<?xml version="1.0" encoding="UTF-8"?>
<svg version="1.1" xmlns="http://www.w3.org/2000/svg" width="158" height="167">
<path d="M0 0 C2.69618448 2.15547627 5.26198017 4.38898174 7.80078125 6.7265625 C8.43113281 7.26539062 9.06148437 7.80421875 9.7109375 8.359375 C22.23339277 19.71230711 30.5091019 38.27399207 32.10449219 54.88964844 C32.236585 58.11251452 32.26905864 61.31368854 32.23828125 64.5390625 C32.22925781 65.67907715 32.22023437 66.8190918 32.2109375 67.99365234 C31.8191618 87.11720384 24.74537486 104.57960545 11.80078125 118.7265625 C11.21039063 119.40847656 10.62 120.09039062 10.01171875 120.79296875 C1.44553338 130.1064171 -10.29430596 136.71101652 -22.19921875 140.7265625 C-23.1325 141.04496094 -24.06578125 141.36335937 -25.02734375 141.69140625 C-45.98384074 147.64370971 -67.86695444 143.90878669 -86.69921875 133.73828125 C-90.84104486 131.40740718 -94.59349175 128.82420979 -98.19921875 125.7265625 C-98.84890625 125.21867188 -99.49859375 124.71078125 -100.16796875 124.1875 C-115.08445079 112.08220111 -123.93388125 92.49931586 -126.19921875 73.7265625 C-127.6181277 51.28374253 -122.48751631 31.27567486 -108.19921875 13.7265625 C-107.74289063 13.1078125 -107.2865625 12.4890625 -106.81640625 11.8515625 C-82.05820075 -20.17102665 -31.41913326 -22.32714964 0 0 Z " fill="#CCB1AA" transform="translate(126.19921875,19.2734375)"/>
<path d="M0 0 C1.24122192 0.90027586 2.4756395 1.81057326 3.6875 2.75 C0.42029209 7.13894929 -2.86148478 11.50259665 -6.3125 15.75 C-9.56857999 15.10764408 -11.90730325 13.87010803 -14.75 12.1875 C-20.87592771 9.05647028 -26.55988939 8.92849256 -33.3125 9.75 C-39.47607932 11.84121441 -44.499207 16.57335758 -47.57421875 22.34375 C-49.6478309 29.10218961 -49.59159898 37.24999971 -47.171875 43.87109375 C-44.09917859 49.31300081 -40.63160689 53.33594941 -34.55859375 55.32421875 C-26.67217778 56.81920891 -18.35303223 56.77316127 -11.3125 52.75 C-10.9825 49.12 -10.6525 45.49 -10.3125 41.75 C-15.9225 41.75 -21.5325 41.75 -27.3125 41.75 C-27.3125 36.8 -27.3125 31.85 -27.3125 26.75 C-16.4225 26.75 -5.5325 26.75 5.6875 26.75 C5.94132074 31.61361563 6.15948193 36.45410366 6.29174805 41.3190918 C6.34685738 42.96962443 6.42177938 44.6196249 6.51733398 46.26831055 C6.81903543 51.61020092 6.89623287 56.51426067 5.6875 61.75 C2.4870026 65.32368722 -0.90353325 66.99349356 -5.3125 68.75 C-6.17979736 69.18578369 -7.04709473 69.62156738 -7.94067383 70.07055664 C-17.85913084 75.00122499 -33.26564233 74.57328968 -43.625 71.125 C-53.99996047 66.44641814 -62.22100206 58.45084075 -66.3125 47.75 C-69.23550988 36.91537672 -68.82942321 22.56328819 -63.3125 12.75 C-57.05804495 2.82204223 -48.6039775 -3.17335182 -37.54296875 -6.8359375 C-24.58311993 -9.24179385 -11.04892846 -7.25139628 0 0 Z " fill="#FEFDFD" transform="translate(106.3125,51.25)"/>
</svg>
